<svg xmlns="http://www.w3.org/2000/svg" viewBox="0 0 64 64" role="img" aria-label="Cinema 4D">
  <defs>
    <radialGradient id="c4dBlue" cx="40%" cy="36%" r="62%">
      <stop offset="0" stop-color="#dbeafe"/>
      <stop offset="0.28" stop-color="#4467f1"/>
      <stop offset="0.72" stop-color="#111a5c"/>
      <stop offset="1" stop-color="#050716"/>
    </radialGradient>
    <radialGradient id="c4dShell" cx="32%" cy="18%" r="84%">
      <stop offset="0" stop-color="#ffffff"/>
      <stop offset="0.5" stop-color="#f8fafc"/>
      <stop offset="0.82" stop-color="#d4dce8"/>
      <stop offset="1" stop-color="#94a3b8"/>
    </radialGradient>
  </defs>
  <circle cx="32" cy="32" r="25" fill="url(#c4dShell)"/>
  <circle cx="35" cy="34" r="18" fill="url(#c4dBlue)"/>
  <path d="M9 30c3-15 18-24 33-20 5 1 9 4 12 8-9-5-19-2-24 7-5 9-13 12-21 5Z" fill="#ffffff"/>
  <path d="M21 50c11 8 27 4 33-9-10 7-22 7-30 1-4-3-6 4-3 8Z" fill="#e5e7eb"/>
  <path d="M42 19c9 6 10 20 2 29 12-6 14-24 3-35l-5 6Z" fill="#0d1b63" opacity=".9"/>
  <circle cx="32" cy="32" r="24.5" fill="none" stroke="#d1d5db" stroke-width="1"/>
</svg>
