<svg xmlns="http://www.w3.org/2000/svg" viewBox="0 0 64 64" role="img" aria-label="Cinema 4D">
  <defs>
    <radialGradient id="blueCore" cx="40%" cy="42%" r="62%">
      <stop offset="0" stop-color="#b9d7ff"/>
      <stop offset="0.35" stop-color="#3859d8"/>
      <stop offset="0.78" stop-color="#10184a"/>
      <stop offset="1" stop-color="#050716"/>
    </radialGradient>
    <radialGradient id="silverShell" cx="30%" cy="18%" r="78%">
      <stop offset="0" stop-color="#ffffff"/>
      <stop offset="0.52" stop-color="#f8fafc"/>
      <stop offset="0.78" stop-color="#cbd5e1"/>
      <stop offset="1" stop-color="#64748b"/>
    </radialGradient>
    <filter id="softShadow" x="-20%" y="-20%" width="140%" height="140%">
      <feDropShadow dx="0" dy="3" stdDeviation="2.4" flood-color="#0f172a" flood-opacity=".22"/>
    </filter>
  </defs>
  <rect width="64" height="64" rx="14" fill="#ffffff"/>
  <g filter="url(#softShadow)">
    <circle cx="32" cy="33" r="24" fill="url(#silverShell)"/>
    <circle cx="34" cy="34" r="17" fill="url(#blueCore)"/>
    <path d="M12 30c3-13 16-22 30-19 5 1 9 4 12 7-9-4-17-1-22 7-5 8-12 11-20 5Z" fill="#ffffff"/>
    <path d="M21 50c10 8 26 4 32-8-10 7-21 7-29 1-3-2-5 3-3 7Z" fill="#e2e8f0" opacity=".92"/>
    <path d="M40 20c9 5 10 19 2 27 13-6 15-24 3-34l-5 7Z" fill="#0f1d65" opacity=".9"/>
  </g>
</svg>
